<?xml version="1.0" encoding="utf-8"?>
<!-- Generator: Adobe Illustrator 23.0.1, SVG Export Plug-In . SVG Version: 6.00 Build 0)  -->
<svg version="1.1" id="Layer_1" xmlns="http://www.w3.org/2000/svg" xmlns:xlink="http://www.w3.org/1999/xlink" x="0px" y="0px"
	 width="129px" height="63.314px" viewBox="0 0 129 63.314" style="enable-background:new 0 0 129 63.314;" xml:space="preserve">
<style type="text/css">
	.st0{fill:#006BB6;}
	.st1{fill-rule:evenodd;clip-rule:evenodd;fill:#E03A3E;}
	.st2{fill-rule:evenodd;clip-rule:evenodd;}
	.st3{fill:#FFFFFF;}
	.st4{fill-rule:evenodd;clip-rule:evenodd;fill:#FDB927;}
	.st5{fill:#FDB927;}
</style>
<g>
	<path class="st0" d="M111.253,51.159c1.338-3.097,2.618-5.906,4.009-9.014c-30.6,0-59.766,0-90.372,0
		c-1.338,3.096-2.675,5.922-4.011,9.014C51.48,51.159,80.646,51.159,111.253,51.159z"/>
	<path class="st1" d="M127.031,23.957c0.625-1.606,1.293-3.074,1.969-4.677c-31.822,0-62.195,0-94.023,0
		c-0.502,1.167-1.011,2.235-1.513,3.401c30.6,0,59.815,0,90.422,0c0.322-0.697,0.587-1.345,0.908-2.04
		C125.573,21.776,126.256,22.808,127.031,23.957z"/>
	<g>
		<path class="st2" d="M61.954,31.227c-0.197-2.125-0.331-3.924-0.583-6.029c-1.275,0-2.47,0-3.743,0
			c0.398,3.211,0.7,6.022,1.097,9.228c-0.956,2.027-1.662,3.852-2.617,5.877c1.275,0,2.414,0,3.635,0
			c0.903-2.026,1.661-3.853,2.616-5.877c3.217-3.211,6.092-6.005,9.306-9.228c-1.274,0-2.491,0-3.763,0
			C65.815,27.307,64.04,29.105,61.954,31.227z"/>
		<path class="st2" d="M75.917,25.199c-1.275,0-2.415,0-3.635,0c-2.357,5.188-4.365,9.908-6.722,15.105c3.134,0,6.142,0,9.272,0
			c0.43-1.037,0.865-1.989,1.347-3.025c-1.912,0-3.728,0-5.639,0C72.365,33.111,74.044,29.342,75.917,25.199z"/>
		<path class="st2" d="M76.447,40.303c1.275,0,2.415,0,3.635,0c2.358-5.187,4.417-9.909,6.722-15.105c-1.275,0-2.414,0-3.633,0
			C80.866,30.386,78.803,35.107,76.447,40.303z"/>
		<path class="st2" d="M122.199,26.866c0.251-0.583,0.442-1.101,0.743-1.667c-3.826,0-7.472,0-11.292,0
			c-0.899,1.994-1.68,3.798-2.578,5.789c-1.54,0-3.065,0-4.656,0c0.897-1.995,1.732-3.798,2.575-5.789c-1.222,0-2.361,0-3.634,0
			c-2.304,5.188-4.417,9.908-6.72,15.105c1.222,0,2.414,0,3.634,0c0.976-2.157,1.824-4.137,2.799-6.29c1.593,0,3.065,0,4.656,0
			c-0.925,2.155-1.874,4.138-2.797,6.29c1.222,0,2.412,0,3.633,0c1.876-4.151,3.555-7.919,5.376-12.08c1.328,0,2.614,0,3.993,0
			c-1.822,4.15-3.502,7.936-5.375,12.08c1.222,0,2.415,0,3.634,0c1.876-4.151,3.502-7.919,5.377-12.08
			c1.222,0,2.328-0.008,3.601-0.008c0.655-1.459,1.208-2.801,1.861-4.258C125.385,24.962,123.843,25.863,122.199,26.866z"/>
		<path d="M85.511,31.88c-0.257,0.616-0.518,1.126-0.775,1.742c-2.488,5.658-2.064,6.643,2.958,6.702c2.39,0,4.644,0,7.031,0
			c1.399-3.144,2.718-5.99,4.062-9.13c-1.222,0-2.413,0-3.633,0c-0.967,2.092-1.751,4.001-2.718,6.105c-1.063,0-2.094,0-3.155,0
			c-1.975-0.037-2.316-0.433-0.813-3.896c0.228-0.438,0.403-0.853,0.58-1.306c1.616-3.427,2.367-3.858,4.346-3.895
			c0.584,0,1.196,0,1.833,0c0.002-0.012,0.013-0.022,0.015-0.034c1.647,0,3.247,0,4.892,0c0.479-1.022,0.844-1.95,1.322-2.97
			c-2.391,0-4.696,0-7.03,0C89.277,25.293,87.982,26.408,85.511,31.88z"/>
		<path class="st2" d="M42.55,31.871c2.354-5.493,1.997-6.604-2.968-6.682c-2.391,0-4.644,0-7.031,0
			c-0.426,1.022-0.843,1.95-1.321,2.97c1.726,0.001,6.108,0.033,6.708,0.034c1.972,0.054,2.323,0.465,0.88,3.896
			c-0.179,0.453-0.406,0.869-0.58,1.306c-1.616,3.428-2.355,3.859-4.28,3.896c-1.063,0-2.095,0-3.156,0
			c0.969-2.108,1.752-4.018,2.717-6.106c-1.222,0-2.414,0-3.635,0c-1.342,3.128-2.614,5.991-4.063,9.131c2.391,0,4.697,0,7.031,0
			c5.036-0.044,6.316-1.05,8.925-6.703C41.979,32.996,42.243,32.47,42.55,31.871z"/>
		<path d="M55.791,25.199c-1.966,0-3.892,0-5.855,0c-3.913,5.272-7.284,9.825-11.247,15.105c1.275,0,2.514,0,3.787,0
			c0.812-1.102,1.518-2.066,2.382-3.168c1.86,0,3.593,0,5.397,0c-0.121,1.103-0.323,2.067-0.443,3.168c1.275,0,2.514,0,3.787,0
			C54.373,35.032,55.015,30.478,55.791,25.199z M47.013,34.166c1.61-2.125,2.986-3.995,4.594-6.116
			c-0.281,2.124-0.568,3.995-0.849,6.116C49.482,34.166,48.286,34.166,47.013,34.166z"/>
	</g>
	<g>
		<path class="st3" d="M25.577,49.849c0.832-1.913,1.625-3.612,2.457-5.523c-0.425,0-0.8,0-1.224,0
			c0.152-0.292,0.281-0.561,0.379-0.853c1.169,0,2.265,0,3.379,0c-0.152,0.292-0.229,0.561-0.38,0.853c-0.425,0-0.798,0-1.223,0
			c-0.83,1.897-1.573,3.613-2.457,5.523C26.242,49.849,25.895,49.849,25.577,49.849z"/>
		<path class="st3" d="M47.369,49.849c0.051-0.665,0.079-1.215,0.129-1.879c-0.796,0-1.496,0-2.291,0
			c-0.583,0.666-1.014,1.214-1.543,1.879c-0.319,0-0.664,0-0.982,0c1.841-2.238,3.37-4.156,5.259-6.376c0.266,0,0.57,0,0.835,0
			c-0.137,2.223-0.277,4.141-0.416,6.376C48.041,49.849,47.688,49.849,47.369,49.849z M47.56,47.118
			c0.03-0.859,0.243-1.579,0.272-2.439c0.006,0-0.01,0-0.016,0c-0.611,0.843-1.289,1.582-1.903,2.439
			C46.445,47.118,46.977,47.118,47.56,47.118z"/>
		<path class="st3" d="M58.034,49.849c-0.314-1.719-0.648-3.196-0.959-4.928c-0.006,0-0.013,0-0.019,0
			c-0.746,1.702-1.45,3.245-2.192,4.928c-0.318,0-0.611,0-0.929,0c0.982-2.189,1.855-4.19,2.836-6.376c0.319,0,0.645,0,1.017,0
			c0.32,1.686,0.727,3.167,0.941,4.851c0.006,0,0.025,0,0.019,0c0.689-1.67,1.472-3.2,2.157-4.851c0.319,0,0.614,0,0.932,0
			c-0.982,2.189-1.853,4.173-2.836,6.376C58.682,49.849,58.405,49.849,58.034,49.849z"/>
		<path class="st3" d="M66.396,47.963c-0.09,0.236-0.49,1.096,0.522,1.154c0.587-0.019,1.174-0.364,1.503-1.077
			c0.328-0.756-0.214-0.882-0.559-1.043c-0.803-0.343-0.866-0.438-1.036-0.714c-0.161-0.31-0.026-0.729,0.101-1.198
			c0.442-0.773,1.272-1.689,2.556-1.731c1.119,0.023,1.53,0.632,1.037,1.774c-0.319,0-0.614,0-0.933,0
			c0.326-0.738-0.059-0.919-0.484-0.922c-0.644,0.038-1.022,0.501-1.242,0.87c-0.205,0.656,0.215,0.783,0.463,0.878
			c0.694,0.305,1.7,0.462,1.028,2.086c-0.56,1.149-1.636,1.874-2.813,1.93c-1.003-0.054-1.621-0.504-1.073-2.007
			C65.784,47.963,66.078,47.963,66.396,47.963z"/>
		<path class="st3" d="M75.085,49.849c-0.318,0-0.611,0-0.931,0c0.983-2.189,1.857-4.19,2.838-6.376c0.584,0,1.206,0,1.842,0
			c1.601,0.04,1.84,0.741,1.392,1.93c-0.562,1.167-1.503,1.874-3.109,1.93c-0.32,0-0.595,0-0.914,0
			C75.854,48.209,75.487,48.975,75.085,49.849z M76.585,46.481c0.319,0,0.593,0,0.912,0c1.129-0.055,1.612-0.594,1.797-1.078
			c0.288-0.504,0.226-1.039-0.838-1.077c-0.319,0-0.593,0-0.912,0C77.216,45.056,76.912,45.752,76.585,46.481z"/>
		<path class="st3" d="M86.826,49.97c-1.909-0.095-2.547-1.469-1.845-3.309c0.931-1.793,2.759-3.213,4.79-3.308
			c2.019,0.079,2.605,1.419,1.838,3.325C90.675,48.488,88.856,49.875,86.826,49.97z M89.391,44.206
			c-1.718,0.095-2.938,1.396-3.479,2.456c-0.431,1.087-0.35,2.361,1.294,2.455c1.717-0.095,2.927-1.386,3.468-2.43
			C91.172,45.5,91.034,44.299,89.391,44.206z"/>
		<path class="st3" d="M106.707,49.849c0.833-1.913,1.626-3.612,2.457-5.523c-0.425,0-0.852,0-1.222,0
			c0.099-0.292,0.228-0.561,0.379-0.853c1.115,0,2.262,0,3.375,0c-0.099,0.292-0.227,0.562-0.378,0.853c-0.373,0-0.8,0-1.223,0
			c-0.83,1.897-1.625,3.613-2.457,5.523C107.319,49.849,107.026,49.849,106.707,49.849z"/>
		<path class="st3" d="M39.369,45.515c0.247-0.568,0.283-1.086,0.087-1.508c-0.218-0.307-0.554-0.532-1.46-0.534
			c-0.691,0-1.283,0-1.973,0c-1.038,2.206-1.86,4.16-2.843,6.362c0.319,0,0.617,0,0.935,0c0.889-1.93,1.624-3.582,2.458-5.51
			c0.319,0,0.666,0,0.984,0c1.066,0.038,1.131,0.605,0.883,1.189c-0.693,1.267-1.898,1.249-2.314,1.249
			c-0.175,0-0.341-0.004-0.515-0.004c0.204,1.07,0.474,2.004,0.623,3.089c0.371,0,0.791,0,1.163,0
			c-0.134-0.844-0.311-1.536-0.497-2.378C37.319,47.469,38.551,47.254,39.369,45.515z"/>
		<path class="st3" d="M102.089,45.537c0.247-0.568,0.283-1.086,0.086-1.508c-0.216-0.324-0.553-0.532-1.46-0.534
			c-0.69,0-1.284,0-1.974,0c-0.977,2.156-1.92,4.211-2.842,6.362c0.32,0,0.617,0,0.936,0c0.835-1.93,1.571-3.582,2.458-5.509
			c0.319,0,0.613,0,0.984,0c1.066,0.039,1.076,0.622,0.883,1.189c-0.689,1.251-1.898,1.249-2.314,1.249
			c-0.175,0-0.341-0.004-0.517-0.004c0.256,1.07,0.422,2.021,0.625,3.088c0.371,0,0.792,0,1.163,0
			c-0.136-0.827-0.26-1.535-0.499-2.378C100.09,47.491,101.271,47.276,102.089,45.537z"/>
	</g>
	<g>
		<path class="st4" d="M43.168,2.137c1.153,0.447,2.29,0.967,3.407,1.56l-3.335,8.915L43.168,2.137z"/>
		<path class="st4" d="M36.552,0.365c1.488,0.229,2.969,0.567,4.432,1.015l-2.051,10.677L36.552,0.365z"/>
		<path class="st4" d="M53.977,9.154c0.483,0.482,0.948,0.979,1.396,1.489l-4.135,5.229L53.977,9.154z"/>
		<path class="st4" d="M29.523,0.078c1.745-0.123,3.504-0.102,5.261,0.068l-0.284,12.148L29.523,0.078z"/>
		<path class="st4" d="M49.05,5.16c0.816,0.533,1.597,1.102,2.348,1.7l-3.958,6.921L49.05,5.16z"/>
		<path class="st5" d="M22.469,1.385c1.873-0.571,3.797-0.97,5.747-1.189l2.069,13.35L22.469,1.385z"/>
		<path class="st4" d="M9.947,8.651c1.639-1.548,3.422-2.902,5.314-4.048l7.385,13.227C22.645,17.831,9.947,8.651,9.947,8.651z"/>
		<path class="st4" d="M9.624,8.96l10.121,12.143L5.257,14.24C6.541,12.292,8.009,10.529,9.624,8.96z"/>
		<path class="st5" d="M5.05,14.56l12.255,10.307l-15.327-4.17C2.609,19,3.394,17.333,4.339,15.716
			C4.568,15.323,4.807,14.939,5.05,14.56z"/>
		<path class="st5" d="M15.804,4.283c1.842-1.066,3.78-1.941,5.784-2.616l4.646,13.629L15.804,4.283z"/>
		<path class="st4" d="M0.136,34.631c-0.197-2.121-0.182-4.267,0.055-6.408l14.63,5.122L0.136,34.631z"/>
		<path class="st4" d="M4.127,47.369c-0.884-1.562-1.631-3.191-2.236-4.87l13.667-0.507L4.127,47.369z"/>
		<path class="st4" d="M12.228,56.746c-1.03-0.8-2-1.655-2.907-2.558l9.919-4.267L12.228,56.746z"/>
		<path class="st4" d="M17.122,59.882c-0.473-0.245-0.941-0.504-1.406-0.775c-0.412-0.241-0.815-0.491-1.212-0.747l7.595-5.198
			L17.122,59.882z"/>
		<path class="st4" d="M7.799,52.561c-1.028-1.18-1.961-2.428-2.793-3.73l12.014-2.683L7.799,52.561z"/>
		<path class="st4" d="M15.612,28.827L0.26,27.632c0.285-2.199,0.807-4.388,1.571-6.53C1.831,21.102,15.615,28.81,15.612,28.827z"/>
		<path class="st4" d="M22.229,61.994c-0.689-0.217-1.373-0.46-2.052-0.725l5.4-5.488L22.229,61.994z"/>
		<path class="st4" d="M57.837,13.824c0.222,0.328,0.562,0.891,0.771,1.227l-4.161,3.371L57.837,13.824z"/>
		<path class="st4" d="M27.35,63.145c-0.444-0.062-0.888-0.131-1.331-0.212l3.25-5.196L27.35,63.145z"/>
		<path class="st4" d="M32.227,63.313c-0.449,0.002-0.898-0.005-1.348-0.024l2.137-4.438L32.227,63.313z"/>
		<path class="st4" d="M37.153,62.839c-0.443,0.072-0.888,0.134-1.335,0.186l1.296-3.556L37.153,62.839z"/>
		<path class="st4" d="M41.925,61.613c-0.426,0.141-0.732,0.229-1.165,0.352l0.728-2.667L41.925,61.613z"/>
		<path class="st4" d="M46.153,59.785c-0.4,0.202-0.622,0.305-1.032,0.491l0.416-1.855L46.153,59.785z"/>
		<path class="st5" d="M1.49,41.315c-0.6-1.893-1.022-3.84-1.26-5.814l14.523,2.298L1.49,41.315z"/>
	</g>
	<g>
		<path d="M113.249,48.806h1.866v0.275h-0.778v2.023h-0.31v-2.023h-0.778L113.249,48.806L113.249,48.806z"/>
		<path d="M117.293,51.104v-1.358c0-0.067,0.007-0.358,0.007-0.573h-0.007l-0.646,1.93h-0.307l-0.646-1.927h-0.007
			c0,0.211,0.007,0.503,0.007,0.569v1.358h-0.301v-2.298h0.445l0.656,1.942h0.006l0.653-1.942h0.442v2.298H117.293z"/>
	</g>
</g>
</svg>
